<svg id="symbologySVG" style="display:inline;width:inherit;min-width:inherit;max-width:inherit;height:inherit;min-height:inherit;max-height:inherit;" width="720px" height="720px" xmlns:symbology="http:www.scavecgraph.net" xmlns="http://www.w3.org/2000/svg" xmlns:xlink="http://www.w3.org/1999/xlink" contentScriptType="text/ecmascript" contentStyleType="text/css" preserveAspectRatio="xMidYMid meet" version="1.0" zoomAndPan="magnify">
    <defs id="defs">
        <radialGradient gradientUnits="objectBoundingBox" id="gradient-7ad5bcd6-F" r="50%" x1="50%" x2="50%" xmlns:xlink="http://www.w3.org/1999/xlink" y1="50%" y2="50%">
            <stop offset="70%" style="stop-opacity:1.0; stop-color:rgb(255,255,255);"/>
            <stop offset="100%" style="stop-opacity:1.0; stop-color:rgb(1,120,175);"/>
        </radialGradient>
        <radialGradient gradientUnits="objectBoundingBox" id="gradient-fd3d556f-F" r="50%" x1="50%" x2="50%" xmlns:xlink="http://www.w3.org/1999/xlink" y1="50%" y2="50%">
            <stop offset="70%" style="stop-opacity:1.0; stop-color:rgb(255,255,255);"/>
            <stop offset="100%" style="stop-opacity:1.0; stop-color:rgb(1,120,175);"/>
        </radialGradient>
        <radialGradient gradientUnits="objectBoundingBox" id="gradient-351e6b29-F" r="50%" x1="50%" x2="50%" xmlns:xlink="http://www.w3.org/1999/xlink" y1="50%" y2="50%">
            <stop offset="80%" style="stop-opacity:1.0; stop-color:rgb(255,255,255);"/>
            <stop offset="100%" style="stop-opacity:1.0; stop-color:rgb(1,120,175);"/>
        </radialGradient>
        <radialGradient gradientUnits="objectBoundingBox" id="gradient-5c87a648-F" r="50%" x1="50%" x2="50%" xmlns:xlink="http://www.w3.org/1999/xlink" y1="50%" y2="50%">
            <stop offset="70%" style="stop-opacity:1.0; stop-color:rgb(255,255,255);"/>
            <stop offset="100%" style="stop-opacity:1.0; stop-color:rgb(1,120,175);"/>
        </radialGradient>
        <radialGradient gradientUnits="objectBoundingBox" id="gradient-3228460f-F" r="50%" x1="50%" x2="50%" xmlns:xlink="http://www.w3.org/1999/xlink" y1="50%" y2="50%">
            <stop offset="70%" style="stop-opacity:1.0; stop-color:rgb(255,255,255);"/>
            <stop offset="100%" style="stop-opacity:1.0; stop-color:rgb(1,120,175);"/>
        </radialGradient>
        <radialGradient gradientUnits="objectBoundingBox" id="gradient-7d36254b-F" r="50%" x1="50%" x2="50%" xmlns:xlink="http://www.w3.org/1999/xlink" y1="50%" y2="50%">
            <stop offset="70%" style="stop-opacity:1.0; stop-color:rgb(255,255,255);"/>
            <stop offset="100%" style="stop-opacity:1.0; stop-color:rgb(1,120,175);"/>
        </radialGradient>
        <radialGradient gradientUnits="objectBoundingBox" id="gradient-f50d88ed-F" r="50%" x1="50%" x2="50%" xmlns:xlink="http://www.w3.org/1999/xlink" y1="50%" y2="50%">
            <stop offset="70%" style="stop-opacity:1.0; stop-color:rgb(255,255,255);"/>
            <stop offset="100%" style="stop-opacity:1.0; stop-color:rgb(1,120,175);"/>
        </radialGradient>
        <radialGradient gradientUnits="objectBoundingBox" id="gradient-f03a4660-F" r="50%" x1="50%" x2="50%" xmlns:xlink="http://www.w3.org/1999/xlink" y1="50%" y2="50%">
            <stop offset="70%" style="stop-opacity:1.0; stop-color:rgb(255,255,255);"/>
            <stop offset="100%" style="stop-opacity:1.0; stop-color:rgb(1,120,175);"/>
        </radialGradient>
        <radialGradient gradientUnits="objectBoundingBox" id="gradient-214bf7b3-F" r="50%" x1="50%" x2="50%" xmlns:xlink="http://www.w3.org/1999/xlink" y1="50%" y2="50%">
            <stop offset="70%" style="stop-opacity:1.0; stop-color:rgb(255,255,255);"/>
            <stop offset="100%" style="stop-opacity:1.0; stop-color:rgb(1,120,175);"/>
        </radialGradient>
    </defs>
    <style>
        .icon:hover {
            fill: #63acce !important;
            transform: scale(0.8);
            transition: all .2s ease-in-out;
        }
        .icon {
            transform-origin: center;
            transform-box: fill-box;
            transition: all .2s ease-in-out;
        }
    </style>    
    <script type="text/javascript">
        function showHide(id){
            document.getElementById("scavecgraph").style.display = "none";
            document.getElementById("solution").style.display = "none";
            document.getElementById("gaze").style.display = "none";
        
            document.getElementById("admin").style.display = "none";
            document.getElementById("repos").style.display = "none";
            document.getElementById("tasking").style.display = "none";
            document.getElementById("specs").style.display = "none";
            document.getElementById("resources").style.display = "none";
            document.getElementById("studios").style.display = "none";
            document.getElementById("channels").style.display = "none";
            document.getElementById("portals").style.display = "none";

            document.getElementById("bg-admin").style.stroke = "#0178af";
            document.getElementById("bg-repos").style.stroke = "#0178af";
            document.getElementById("bg-tasking").style.stroke = "#0178af";
            document.getElementById("bg-specs").style.stroke = "#0178af";
            document.getElementById("bg-resources").style.stroke = "#0178af";
            document.getElementById("bg-studios").style.stroke = "#0178af";
            document.getElementById("bg-channels").style.stroke = "#0178af";
            document.getElementById("bg-portals").style.stroke = "#0178af";
                
            document.getElementById("icon-admin").style.fill = "#0178af";
            document.getElementById("icon-repos").style.fill = "#0178af";
            document.getElementById("icon-tasking").style.fill = "#0178af";
            document.getElementById("icon-specs").style.fill = "#0178af";
            document.getElementById("icon-resources").style.fill = "#0178af";
            document.getElementById("icon-studios").style.fill = "#0178af";
            document.getElementById("icon-channels").style.fill = "#0178af";
            document.getElementById("icon-portals").style.fill = "#0178af";
        
            document.getElementById(id).style.display = "block";
            document.getElementById("bg-" + id).style.stroke = "#63acce";        
            document.getElementById("icon-" + id).style.fill = "#63acce";
        
        }
        function reset(){
            document.getElementById("scavecgraph").style.display = "block";
            document.getElementById("solution").style.display = "block";        
            document.getElementById("gaze").style.display = "block";
        
            document.getElementById("admin").style.display = "none";
            document.getElementById("repos").style.display = "none";
            document.getElementById("tasking").style.display = "none";
            document.getElementById("specs").style.display = "none";
            document.getElementById("resources").style.display = "none";
            document.getElementById("studios").style.display = "none";
            document.getElementById("channels").style.display = "none";
            document.getElementById("portals").style.display = "none";	
        
            document.getElementById("bg-admin").style.stroke = "#0178af";
            document.getElementById("bg-repos").style.stroke = "#0178af";
            document.getElementById("bg-tasking").style.stroke = "#0178af";
            document.getElementById("bg-specs").style.stroke = "#0178af";
            document.getElementById("bg-resources").style.stroke = "#0178af";
            document.getElementById("bg-studios").style.stroke = "#0178af";
            document.getElementById("bg-channels").style.stroke = "#0178af";
            document.getElementById("bg-portals").style.stroke = "#0178af";        
        
            document.getElementById("icon-admin").style.fill = "#0178af";
            document.getElementById("icon-repos").style.fill = "#0178af";
            document.getElementById("icon-tasking").style.fill = "#0178af";
            document.getElementById("icon-specs").style.fill = "#0178af";
            document.getElementById("icon-resources").style.fill = "#0178af";
            document.getElementById("icon-studios").style.fill = "#0178af";
            document.getElementById("icon-channels").style.fill = "#0178af";
            document.getElementById("icon-portals").style.fill = "#0178af";
        }
    </script>  
    <g data-scale="1.0" id="root" transform="scale(1.0)">
        <path onclick="reset();" d="M650 350 C650 515.69 515.69 650 350 650 C184.32 650 50 515.69 50 350 C50 184.32 184.32 50 350 50 C515.69 50 650 184.32 650 350 Z " fill="url(#gradient-351e6b29-F)" id="el351e6b29" stroke="#0178af" stroke-opacity="1.0" stroke-width="20" symbology:group="0" symbology:type="Ellipse" transform="rotate(0.0,350,350)"/>
        <path id="bg-admin" style="cursor: pointer;" onclick="showHide('admin');" d="M400 52 C400 79.62 377.62 102 350 102 C322.39 102 300 79.62 300 52 C300 24.39 322.39 2 350 2 C377.62 2 400 24.39 400 52 Z " fill="url(#gradient-7ad5bcd6-F)" stroke="#0178af" stroke-opacity="1.0" stroke-width="4" symbology:group="0" symbology:type="Ellipse" transform="rotate(0.0,350,52)"/>
        <path id="bg-repos" style="cursor: pointer;" onclick="showHide('repos');" d="M616 140 C616 167.62 592.28 190 563 190 C533.73 190 510 167.62 510 140 C510 112.39 533.73 90 563 90 C592.28 90 616 112.39 616 140 Z " fill="url(#gradient-f03a4660-F)" stroke="#0178af" stroke-opacity="1.0" stroke-width="4" symbology:group="0" symbology:type="Ellipse" transform="rotate(0.0,563,140)"/>
        <path id="bg-tasking" style="cursor: pointer;" onclick="showHide('tasking');" d="M700 350 C700 377.62 677.62 400 650 400 C622.39 400 600 377.62 600 350 C600 322.39 622.39 300 650 300 C677.62 300 700 322.39 700 350 Z " fill="url(#gradient-fd3d556f-F)" stroke="#0178af" stroke-opacity="1.0" stroke-width="4" symbology:group="0" symbology:type="Ellipse" transform="rotate(0.0,650,350)"/>
        <path id="bg-specs" style="cursor: pointer;" onclick="showHide('specs');" d="M610 560 C610 587.62 587.62 610 560 610 C532.39 610 510 587.62 510 560 C510 532.39 532.39 510 560 510 C587.62 510 610 532.39 610 560 Z " fill="url(#gradient-5c87a648-F)" stroke="#0178af" stroke-opacity="1.0" stroke-width="4" symbology:group="0" symbology:type="Ellipse" transform="rotate(0.0,560,560)"/>
        <path id="bg-resources" style="cursor: pointer;" onclick="showHide('resources');" d="M400 650 C400 677.62 377.62 700 350 700 C322.39 700 300 677.62 300 650 C300 622.39 322.39 600 350 600 C377.62 600 400 622.39 400 650 Z " fill="url(#gradient-3228460f-F)" stroke="#0178af" stroke-opacity="1.0" stroke-width="4" symbology:group="0" symbology:type="Ellipse" transform="rotate(0.0,350,650)"/>
        <path id="bg-studios" style="cursor: pointer;" onclick="showHide('studios');" d="M190 560 C190 587.62 167.62 610 140 610 C112.39 610 90 587.62 90 560 C90 532.39 112.39 510 140 510 C167.62 510 190 532.39 190 560 Z " fill="url(#gradient-7d36254b-F)" stroke="#0178af" stroke-opacity="1.0" stroke-width="4" symbology:group="0" symbology:type="Ellipse" transform="rotate(0.0,140,560)"/>
        <path id="bg-channels" style="cursor: pointer;" onclick="showHide('channels');" d="M100 350 C100 377.62 77.62 400 50 400 C22.39 400 0 377.62 0 350 C0 322.39 22.39 300 50 300 C77.62 300 100 322.39 100 350 Z " fill="url(#gradient-214bf7b3-F)" stroke="#0178af" stroke-opacity="1.0" stroke-width="4" symbology:group="0" symbology:type="Ellipse" transform="rotate(0.0,50,350)"/>
        <path id="bg-portals" style="cursor: pointer;" onclick="showHide('portals');" d="M190 140 C190 167.62 167.62 190 140 190 C112.39 190 90 167.62 90 140 C90 112.39 112.39 90 140 90 C167.62 90 190 112.39 190 140 Z " fill="url(#gradient-f50d88ed-F)" stroke="#0178af" stroke-opacity="1.0" stroke-width="4" symbology:group="0" symbology:type="Ellipse" transform="rotate(0.0,140,140)"/>
        <path id="gaze" d="M426.96 240 C425.48 240 424 240.14 422.73 240.29 L422.73 240.29 C414.17 240.62 402.42 243.26 390 248.01 C370.21 255.59 355.27 266.12 353.43 273.25 L353.43 273.25 L349.53 279.5 L348.96 279.78 L348.96 279.78 C347.42 281.34 344.17 283.36 340.23 285.08 C338.58 285.81 337.02 286.46 335.56 286.9 L335.56 286.9 L334.93 287.24 L334.93 287.24 C334.61 287.27 334.28 287.31 333.98 287.4 L333.98 287.4 C332.61 287.75 331.45 287.96 330.52 288.02 L330.52 288.02 L313.86 291.27 C306.15 292.77 300.23 296.28 300.11 299.36 L300.11 299.36 C300.05 299.83 300.08 300.27 300.23 300.75 L302.67 307.9 L302.67 307.9 C303.08 308.62 303.4 309.49 303.58 310.48 L303.58 310.48 L303.83 311.27 L303.83 311.27 L303.71 311.58 L303.71 311.58 C303.73 311.81 303.73 312.06 303.73 312.28 C303.73 315.55 302.3 318.21 300.43 318.58 L300.43 318.58 L291.49 323.12 C289.75 324.02 288.87 325.96 289.31 327.81 L289.31 327.81 L288.61 332.83 L288.61 332.83 L284.56 333.53 L284.56 333.53 C284.36 333.53 284.18 333.58 283.99 333.61 L283.99 333.61 L283.28 333.77 C282.3 333.93 281.61 334.87 281.81 335.9 L281.83 336.08 L281.83 336.08 L279.4 344.53 L279.4 344.53 L267.03 355.31 C265.8 356.36 264.93 357.62 264.48 358.87 L264.48 358.87 C262.48 362.61 263.05 367.36 266.21 370.52 L320.8 425.09 L320.8 425.09 L321.06 425.71 L321.06 425.71 C322.23 427.17 323.37 429.18 324.4 431.46 C325.4 433.74 326.12 435.95 326.46 437.77 L326.46 437.77 L326.86 438.7 L326.86 438.7 C326.84 438.93 326.84 439.15 326.84 439.4 L326.84 448.33 C326.84 454.8 332.06 460.02 338.53 460.02 L425.74 460.02 C432.18 460.02 437.45 454.8 437.45 448.33 L437.45 439.4 C437.45 433.33 432.8 428.3 426.9 427.75 L426.9 427.75 L421.98 432.81 C419.98 434.93 417.24 436 414.56 436 C411.99 436 409.4 435.02 407.36 433.11 L406.06 431.83 C405.08 430.9 404.36 429.83 403.83 428.71 L403.83 428.71 C403.71 428.52 403.58 428.3 403.48 428.11 L401.08 424.15 C399.17 420.96 400.21 416.78 403.4 414.89 L410.4 410.67 L410.4 410.67 L410.36 410.65 L410.36 410.65 C410.92 410.23 411.2 409.78 411.11 409.42 C411.11 409.33 411.06 409.24 411.05 409.17 L411.05 409.17 C411.05 409.17 411.05 409.15 411.05 409.15 C411.28 408.59 410.08 407.34 407.87 405.92 L407.87 405.92 C403.4 404.06 398.06 401.58 392.43 398.55 C379.86 391.87 370.12 385.11 368.83 382.28 L368.83 382.28 C368.56 382.06 368.31 381.86 368.17 381.55 C366.77 379.52 368.17 376.17 371.27 374.08 L377.86 369.64 L377.86 369.64 C380.46 366.98 380.61 362.73 378.06 359.92 L377.27 358.96 C375.86 357.43 373.93 356.64 372.02 356.64 C370.31 356.64 368.62 357.23 367.27 358.49 L367.06 358.64 L367.06 358.64 L362.43 365.77 C361.52 367.17 359.99 367.96 358.42 367.96 C357.71 367.96 357 367.8 356.33 367.48 L356.33 367.48 C355.71 367.17 355 366.77 354.33 366.18 L354.33 366.18 L353.74 365.83 C352.99 365.33 352.42 364.67 352.06 363.92 L352.06 363.92 C350.36 361.92 348.71 359.17 347.33 355.98 C346.67 354.42 346.17 352.86 345.77 351.37 L345.77 351.37 C345.68 351.21 345.61 351.02 345.56 350.86 L344.23 346.11 C343.25 342.77 345.18 339.27 348.56 338.28 L356.56 336.02 L356.56 336.02 C362.11 334.17 365.96 331.81 365.56 330.21 C365.52 330.17 365.52 330.08 365.46 329.96 L365.46 329.96 C365.42 329.67 365.25 329.37 365.02 329.02 L365.02 329.02 L362.46 327.14 L362.46 327.14 C362.43 327.06 362.37 327.06 362.31 327.02 L362.31 327.02 L362.31 326.98 L360.23 325.42 C360.02 325.25 359.86 325.12 359.75 324.93 L359.75 324.93 C359.62 324.86 359.52 324.77 359.4 324.71 C356.49 322.33 357.36 316.46 361.33 311.58 C363.61 308.7 366.52 306.83 369.06 306.18 L369.06 306.18 C369.93 305.81 370.83 305.61 371.68 305.61 C373.98 305.61 376.21 306.89 377.31 309.06 L378.49 311.37 L378.73 311.18 L378.73 311.18 C378.77 311.5 378.81 311.86 378.87 312.17 L378.87 312.17 L380.06 314.49 L380.06 314.49 C380.27 314.64 380.46 314.73 380.67 314.81 C380.81 314.87 381.03 314.92 381.24 314.92 C384.27 314.92 388.98 308.08 392.17 298.9 C392.27 298.55 392.4 298.21 392.52 297.86 L392.52 297.86 L392.96 297.43 L392.96 297.43 C397.52 286.9 402.14 278.58 405.78 274.27 L405.78 274.27 C406.31 273.43 407.02 272.71 407.8 272.15 L407.8 272.15 C408.71 271.43 409.55 270.99 410.25 270.99 C410.31 270.99 410.36 270.99 410.46 271.03 L410.46 271.03 C410.96 270.9 411.5 270.86 412.02 270.86 C415.27 270.86 418.02 272.9 419.08 275.83 L419.08 275.83 C419.14 275.83 419.21 275.84 419.23 275.84 L419.23 275.84 C420.33 278.36 422.83 280.08 425.74 280.08 C429.65 280.08 432.83 276.93 432.83 272.99 C432.83 270.03 431.02 267.5 428.49 266.48 L428.49 266.48 C423.56 265.55 420.08 263.37 420.24 261.08 C420.24 260.67 420.42 260.23 420.71 259.87 L420.71 259.87 C421.67 257.49 424.8 253.7 428.96 249.95 C431.87 247.31 434.75 245.23 437.05 243.92 L437.05 243.92 C437.31 243.67 437.45 243.39 437.45 243.12 C437.45 241.39 432.77 240 426.96 240 Z " fill="#0178af" fill-opacity="1.0" stroke="#ffffff" stroke-opacity="1.0" stroke-width="0" symbology:group="0" symbology:type="ShapedSymbol"/>
        <path id="icon-admin" class="icon" style="cursor: pointer;" onclick="showHide('admin');" d="M350.75 14.24 C343.21 14.24 337.08 20.22 337.08 27.58 C337.08 31.18 338.53 34.44 340.92 36.85 L340.9 36.85 L340.9 36.91 L340.92 36.91 C342.39 38.25 343.73 40.32 344.65 42.89 L344.74 42.89 L344.74 43.07 L344.74 43.07 C344.89 43.5 345.02 43.96 345.15 44.41 L345.15 44.41 C345.46 44.78 345.95 45 346.46 45 L354.96 45 C355.49 45 355.96 44.78 356.28 44.41 L356.28 44.41 C356.42 43.96 356.55 43.5 356.71 43.07 L356.71 43.07 L356.71 42.89 L356.77 42.89 C357.52 40.78 358.59 38.98 359.77 37.67 L359.77 37.67 L359.77 37.62 L359.77 37.62 C359.81 37.59 359.89 37.53 359.95 37.46 L359.95 37.46 C360.2 37.21 360.46 36.96 360.71 36.75 L360.71 36.75 C363.02 34.35 364.43 31.13 364.43 27.58 C364.43 20.22 358.3 14.24 350.75 14.24 Z M342.52 49.25 C339.49 49.25 337.02 51.67 336.92 54.69 L336.92 54.69 L336.92 55.37 C336.92 56.07 336.34 56.64 335.64 56.64 L324.25 56.64 C322.95 56.64 321.86 57.71 321.86 59.03 L321.86 66.34 C321.86 67.63 322.95 68.7 324.25 68.7 L376.93 68.7 C378.23 68.7 379.3 67.63 379.3 66.34 L379.3 59.03 C379.3 57.71 378.23 56.64 376.93 56.64 L365.8 56.64 C365.09 56.64 364.52 56.07 364.52 55.37 L364.52 54.69 L364.52 54.69 C364.43 51.67 361.96 49.25 358.9 49.25 Z M326.73 72.19 C326.02 72.19 325.45 72.75 325.45 73.45 L325.45 78.98 C325.45 79.69 326.02 80.25 326.73 80.25 L374.96 80.25 C375.68 80.25 376.24 79.69 376.24 78.98 L376.24 73.45 C376.24 72.75 375.68 72.19 374.96 72.19 Z " fill="#0178af" fill-opacity="1.0" stroke="#ffffff" stroke-opacity="1.0" stroke-width="0" symbology:group="0" symbology:type="ShapedSymbol"/>
        <path id="icon-repos" class="icon" style="cursor: pointer;" onclick="showHide('repos');" d="M563.5 113.63 C576.72 113.63 587.43 115.81 587.43 118.48 C587.43 121.16 576.72 123.32 563.5 123.32 C550.29 123.32 539.59 121.16 539.59 118.48 C539.59 115.81 550.29 113.63 563.5 113.63 Z M563.59 110 C547.45 110 534.3 113.27 533.83 117.32 L533.8 117.32 L533.8 130.25 L533.85 130.25 C534.65 134.23 547.66 137.4 563.59 137.4 C579.52 137.4 592.52 134.23 593.31 130.25 L593.35 130.25 L593.35 117.32 L593.35 117.32 C592.86 113.27 579.72 110 563.59 110 Z M533.8 133.25 L533.8 146.79 L533.87 146.79 C534.81 150.73 547.75 153.87 563.59 153.87 C579.41 153.87 592.36 150.73 593.29 146.79 L593.35 146.79 L593.35 133.25 L593.25 133.25 C592.03 137.12 579.22 140.17 563.59 140.17 C547.96 140.17 535.16 137.12 533.91 133.25 Z M533.8 149.48 L533.8 161.95 L533.81 161.95 C533.81 161.98 533.8 162.01 533.8 162.06 C533.8 166.45 547.15 170 563.59 170 C580.03 170 593.35 166.45 593.35 162.06 C593.35 162.01 593.35 161.98 593.35 161.95 L593.35 161.95 L593.35 149.48 L593.31 149.48 C592.52 153.47 579.52 156.62 563.59 156.62 C547.66 156.62 534.65 153.47 533.85 149.48 Z " fill="#0178af" fill-opacity="1.0" stroke="#ffffff" stroke-opacity="1.0" stroke-width="0" symbology:group="0" symbology:type="ShapedSymbol"/>
        <path id="icon-tasking" class="icon" style="cursor: pointer;" onclick="showHide('tasking');" d="M670.73 322.65 C670.41 322.65 670.11 322.78 669.89 322.98 L669.83 322.98 C665.2 328.37 649.84 332.33 631.6 332.33 C630.99 332.33 630.4 332.33 629.79 332.33 L629.79 332.33 C629.34 332.49 628.99 332.92 628.99 333.43 L628.99 335.49 C628.99 336.15 629.53 336.68 630.18 336.68 L671.24 336.68 C671.75 336.68 672.2 336.37 672.36 335.93 L672.36 335.93 C672.46 335.74 672.53 335.52 672.53 335.3 L672.53 323.96 C672.53 323.24 671.93 322.65 671.22 322.65 Z M630.1 339.3 C629.45 339.3 628.91 339.83 628.91 340.49 L628.91 342.55 C628.91 343.21 629.45 343.74 630.1 343.74 L671.34 343.74 C671.99 343.74 672.53 343.21 672.53 342.55 L672.53 340.49 C672.53 339.83 671.99 339.3 671.34 339.3 Z M630.1 346.05 C629.45 346.05 628.91 346.58 628.91 347.24 L628.91 349.3 C628.91 349.95 629.45 350.49 630.1 350.49 L671.34 350.49 C671.99 350.49 672.53 349.95 672.53 349.3 L672.53 347.24 C672.53 346.58 671.99 346.05 671.34 346.05 Z M630.1 352.71 C629.45 352.71 628.91 353.24 628.91 353.9 L628.91 355.96 C628.91 356.61 629.45 357.15 630.1 357.15 L671.34 357.15 C671.99 357.15 672.53 356.61 672.53 355.96 L672.53 353.9 C672.53 353.24 671.99 352.71 671.34 352.71 Z M630.1 359.28 C629.45 359.28 628.91 359.81 628.91 360.48 L628.91 362.55 C628.91 363.2 629.45 363.73 630.1 363.73 L671.34 363.73 C671.99 363.73 672.53 363.2 672.53 362.55 L672.53 360.48 C672.53 359.81 671.99 359.28 671.34 359.28 Z M620.98 343.11 C620.33 343.11 619.79 343.65 619.79 344.3 L619.79 368.08 L619.79 371.9 C619.79 372.55 620.33 373.08 620.98 373.08 L680.6 373.08 C681.27 373.08 681.79 372.55 681.79 371.9 L681.79 368.08 L681.79 344.3 C681.79 343.65 681.27 343.11 680.6 343.11 L677.2 343.11 C676.54 343.11 676 343.65 676 344.3 L676 365.62 L675.98 365.62 C675.87 366.18 675.4 366.58 674.81 366.58 L626.78 366.58 C626.2 366.58 625.72 366.18 625.61 365.62 L625.59 365.62 L625.59 344.3 C625.59 343.65 625.04 343.11 624.4 343.11 Z " fill="#0178af" fill-opacity="1.0" stroke="#ffffff" stroke-opacity="1.0" stroke-width="0" symbology:group="0" symbology:type="ShapedSymbol"/>
        <path id="icon-specs" class="icon" style="cursor: pointer;" onclick="showHide('specs');" d="M564 572.81 C564 572.81 564 572.81 564 572.81 L564 572.81 L564 572.81 Z M558.31 570.29 C558.48 570.29 558.61 570.34 558.71 570.41 C559.16 570.93 557.98 572.74 556.08 574.47 C554.49 575.89 552.92 576.79 552.15 576.79 C551.98 576.79 551.85 576.75 551.78 576.66 C551.3 576.15 552.48 574.34 554.4 572.6 C555.97 571.2 557.54 570.29 558.31 570.29 Z M589.15 538.72 C588.22 538.72 587.29 539.05 586.54 539.72 L586.54 539.72 C584.66 540.83 577.72 546.45 569.66 553.46 C565.18 557.36 561.16 560.98 558.23 563.71 L558.23 563.71 L556.98 564.84 C556.89 564.93 556.8 565.04 556.73 565.14 L556.73 565.14 C556.71 565.16 556.68 565.2 556.66 565.22 L556.66 565.22 L556.68 565.23 L556.68 565.23 C556.43 565.72 556.49 566.33 556.89 566.75 L557.58 567.54 L557.58 567.54 C557.54 567.54 557.5 567.55 557.47 567.56 L551.98 569.66 C551.85 569.73 551.73 569.81 551.66 569.92 L551.66 569.92 C551.48 570.09 551.35 570.29 551.24 570.5 L547.52 578.91 C547.41 579.15 547.35 579.4 547.35 579.64 L547.35 579.64 C547.29 579.83 547.28 580.04 547.35 580.23 C547.49 580.64 547.95 580.87 548.47 580.87 C548.67 580.87 548.89 580.84 549.1 580.77 L558.08 577.49 C558.17 577.47 558.27 577.42 558.35 577.36 L558.35 577.36 C558.6 577.34 558.83 577.18 558.93 576.96 L561.45 571.84 L561.45 571.84 L562.14 572.6 C562.41 572.91 562.79 573.05 563.15 573.05 C563.43 573.05 563.72 572.97 563.97 572.78 L563.97 572.78 L564 572.81 L564 572.81 C564.98 571.93 566.17 570.85 567.5 569.6 L567.5 569.6 L568.31 568.87 C568.4 568.8 568.47 568.72 568.53 568.65 L568.53 568.65 C571.04 566.24 574.04 563.34 577.18 560.17 C583.66 553.7 589.08 547.98 591.24 545.35 L591.24 545.35 L591.47 545.16 C593.03 543.71 593.16 541.34 591.79 539.85 C591.08 539.1 590.11 538.72 589.15 538.72 Z M549.68 528.8 L536.6 541.68 L536.6 587.72 C536.6 588.33 537.1 588.8 537.72 588.8 L581.48 588.8 C582.1 588.8 582.59 588.33 582.59 587.72 L582.59 558.16 L579.59 560.97 L579.59 560.97 L579.59 585.22 C579.59 585.64 579.24 585.96 578.84 585.96 L540.15 585.96 C539.74 585.96 539.41 585.64 539.41 585.22 L539.41 544.54 L552.7 544.54 C553.3 544.54 553.8 544.04 553.8 543.43 L553.8 531.91 L578.84 531.91 C579.24 531.91 579.59 532.23 579.59 532.64 L579.59 542.29 L582.59 539.47 L582.59 529.91 C582.59 529.3 582.1 528.8 581.48 528.8 Z " fill="#0178af" fill-opacity="1.0" stroke="#ffffff" stroke-opacity="1.0" stroke-width="0" symbology:group="0" symbology:type="ShapedSymbol"/>
        <path id="icon-resources" class="icon" style="cursor: pointer;" onclick="showHide('resources');" d="M324.53 627.99 C324.24 627.99 323.96 628.1 323.81 628.28 C323.45 628.45 323.24 629.02 323.33 629.62 L324.27 635.47 C324.3 635.67 324.36 635.85 324.43 636.02 C324.43 636.17 324.46 636.33 324.56 636.45 C324.68 636.6 324.9 636.67 325.14 636.67 C325.43 636.67 325.78 636.55 326.08 636.29 L330.7 632.56 C331.24 632.12 331.43 631.47 331.15 631.11 C331.09 631.04 331.02 630.99 330.95 630.96 C330.8 630.79 330.62 630.66 330.42 630.56 L325.27 628.16 C325.02 628.04 324.77 627.99 324.53 627.99 Z M370.68 651.4 C372.02 651.4 373.09 652.48 373.09 653.8 L373.09 662.04 C373.09 663.37 372.02 664.43 370.68 664.43 L369.08 664.43 C367.74 664.43 366.67 663.37 366.67 662.04 L366.67 653.8 C366.67 652.48 367.74 651.4 369.08 651.4 Z M345.09 648.89 C345.34 648.89 345.59 648.98 345.77 649.16 L349.33 652.73 L349.36 652.73 L349.36 652.73 C349.36 652.75 349.36 652.77 349.39 652.78 L349.5 652.91 C349.73 653.1 349.99 653.2 350.27 653.2 C350.49 653.2 350.68 653.15 350.87 653 C351.24 652.73 351.4 652.27 351.28 651.83 L351.24 651.31 C351.3 650.74 351.53 650.21 351.96 649.77 C352.45 649.29 353.08 649.04 353.71 649.04 C354.33 649.04 354.98 649.29 355.46 649.77 C356.43 650.73 356.42 652.3 355.46 653.27 C355.02 653.7 354.49 653.92 353.92 653.98 L353.4 653.93 C353.31 653.91 353.21 653.91 353.11 653.91 C352.75 653.91 352.43 654.05 352.21 654.35 C351.92 654.77 351.98 655.34 352.33 655.72 L352.45 655.84 C352.46 655.85 352.46 655.85 352.48 655.85 L352.48 655.85 L356.05 659.46 C356.43 659.81 356.43 660.42 356.05 660.8 L352.58 664.28 L352.58 664.28 L352.58 664.29 C352.56 664.29 352.55 664.3 352.55 664.31 L352.42 664.43 C352.08 664.84 352.02 665.4 352.3 665.8 C352.34 665.85 352.39 665.9 352.43 665.95 C352.64 666.16 352.9 666.25 353.21 666.25 C353.3 666.25 353.4 666.24 353.52 666.22 L354 666.18 C354.58 666.22 355.11 666.47 355.55 666.9 C356.52 667.85 356.5 669.42 355.55 670.4 C355.06 670.86 354.43 671.11 353.8 671.11 C353.17 671.11 352.53 670.86 352.05 670.4 C351.62 669.96 351.4 669.41 351.34 668.85 L351.37 668.35 C351.48 667.97 351.37 667.54 351.11 667.27 C351.06 667.22 351.02 667.2 350.98 667.16 C350.8 667.03 350.58 666.97 350.36 666.97 C350.09 666.97 349.83 667.08 349.59 667.27 L349.48 667.39 C349.48 667.39 349.46 667.39 349.46 667.41 L349.46 667.41 L345.77 671.09 C345.59 671.28 345.34 671.36 345.09 671.36 C344.86 671.36 344.61 671.28 344.42 671.08 L340.83 667.5 C340.81 667.49 340.81 667.48 340.81 667.47 L340.68 667.35 C340.34 666.97 340.28 666.41 340.58 665.99 C340.78 665.71 341.11 665.54 341.48 665.54 C341.58 665.54 341.67 665.54 341.77 665.58 L342.27 665.61 C342.83 665.56 343.39 665.34 343.8 664.91 C344.77 663.93 344.77 662.39 343.8 661.41 C343.33 660.92 342.7 660.68 342.08 660.68 C341.43 660.68 340.8 660.92 340.33 661.41 C339.89 661.84 339.65 662.39 339.61 662.95 L339.65 663.45 C339.77 663.9 339.61 664.39 339.23 664.65 C339.05 664.77 338.84 664.84 338.64 664.84 C338.36 664.84 338.08 664.72 337.86 664.54 L337.74 664.41 C337.74 664.41 337.73 664.39 337.71 664.39 L337.71 664.39 L334.14 660.8 C333.77 660.42 333.77 659.81 334.14 659.46 L337.81 655.77 L337.83 655.77 C337.83 655.75 337.83 655.75 337.84 655.75 L337.84 655.75 L337.96 655.61 C338.18 655.43 338.46 655.34 338.74 655.34 C338.95 655.34 339.15 655.4 339.33 655.5 C339.39 655.55 339.43 655.59 339.46 655.64 C339.74 655.91 339.83 656.33 339.74 656.72 L339.71 657.21 C339.75 657.77 339.99 658.33 340.43 658.75 C340.9 659.23 341.53 659.47 342.17 659.47 C342.8 659.47 343.43 659.23 343.9 658.75 C344.87 657.79 344.87 656.22 343.9 655.25 C343.48 654.83 342.93 654.6 342.36 654.54 L341.86 654.59 C341.77 654.61 341.67 654.62 341.58 654.62 C341.27 654.62 340.99 654.52 340.78 654.31 C340.75 654.27 340.71 654.22 340.68 654.17 C340.39 653.77 340.45 653.2 340.77 652.81 L340.77 652.79 L340.9 652.67 C340.93 652.66 340.93 652.66 340.95 652.65 L340.95 652.65 L340.95 652.65 L344.42 649.16 C344.61 648.98 344.86 648.89 345.09 648.89 Z M342.34 616.56 C341.65 616.56 341.08 617.16 341.08 617.85 L341.08 639.54 L338.49 639.54 L334.33 634.59 C334 634.18 333.52 633.97 333.03 633.97 C332.65 633.97 332.25 634.1 331.95 634.36 L326.55 638.9 C326.33 639.08 326.18 639.3 326.08 639.54 L325.99 639.54 L325.99 639.8 C325.93 640.05 325.93 640.31 325.99 640.56 L325.99 640.56 L325.99 651.31 L325.99 651.31 C325.99 651.4 325.99 651.47 325.99 651.56 L325.99 670.71 C325.99 677.27 331.3 682.56 337.84 682.56 L354.8 682.56 C360.15 682.56 364.68 679.03 366.15 674.15 C366.23 673.09 367.14 672.23 368.27 672.23 L372.46 672.23 C376.46 672.23 379.71 669 379.71 665 L379.71 651.35 C379.71 647.35 376.46 644.11 372.46 644.11 L368.86 644.11 L368.86 644.11 L368.86 644.11 C367.55 644.06 366.49 642.98 366.49 641.66 L366.43 641.66 C366.39 641.18 366.46 640.65 366.59 640.06 C366.61 639.97 366.64 639.86 366.67 639.77 L366.67 639.54 L366.62 639.54 L366.8 639.25 C367 638.66 367.25 638.05 367.59 637.45 C368.15 636.43 368.83 635.59 369.52 634.97 C369.52 634.97 369.52 634.97 369.52 634.97 C370.14 634.3 370.77 633.71 371.4 633.21 L372.74 631.67 C373.34 630.35 373.7 628.8 373.7 627.12 C373.7 624.61 372.9 622.35 371.67 620.85 C371.25 620.16 370.68 619.47 369.96 618.87 C368.68 617.79 367.2 617.2 365.99 617.2 C365.2 617.2 364.52 617.46 364.08 617.97 C364.02 618.04 363.98 618.1 363.93 618.16 C364.24 618.91 364.28 620.18 364 621.54 C363.68 623.08 363 624.31 362.33 624.79 C362.31 624.81 362.3 624.85 362.3 624.9 C361.5 625.8 360.99 627.33 360.99 629.04 C360.99 629.71 361.06 630.35 361.21 630.93 C361.43 631.37 361.58 632.04 361.58 632.75 C361.58 633.77 361.3 634.65 360.92 634.97 C360.87 635.09 360.8 635.17 360.73 635.24 L360.73 635.29 L357.17 639.54 L351.15 639.54 L351.15 639.54 L351.15 639.54 C350.83 639.49 350.56 639.21 350.56 638.86 L350.56 638.35 C350.56 637.98 350.87 637.67 351.24 637.67 L353.86 637.67 C353.93 637.67 353.99 637.67 354.03 637.7 C354.39 637.55 354.64 637.22 354.64 636.84 L354.64 635.64 C354.64 635.12 354.21 634.71 353.71 634.71 L351.08 634.71 C350.7 634.71 350.39 634.41 350.39 634.04 L350.39 633.35 C350.39 632.98 350.7 632.67 351.08 632.67 L353.86 632.67 C354.39 632.67 354.8 632.25 354.8 631.73 L354.8 630.56 C354.8 630.04 354.39 629.62 353.86 629.62 L351.08 629.62 C350.7 629.62 350.39 629.31 350.39 628.95 L350.39 628.27 C350.39 627.89 350.7 627.6 351.08 627.6 L353.78 627.6 C354.3 627.6 354.71 627.16 354.71 626.66 L354.71 625.47 C354.71 624.97 354.3 624.54 353.78 624.54 L350.3 624.54 C349.78 624.54 349.37 624.12 349.37 623.6 L349.37 623.43 C349.37 622.93 349.78 622.5 350.3 622.5 L352.89 622.5 C353.99 622.5 354.89 621.61 354.89 620.52 L354.89 618.56 C354.89 617.47 353.99 616.56 352.89 616.56 Z " fill="#0178af" fill-opacity="1.0" stroke="#ffffff" stroke-opacity="1.0" stroke-width="0" symbology:group="0" symbology:type="ShapedSymbol"/>
        <path id="icon-studios" class="icon" style="cursor: pointer;" onclick="showHide('studios');" d="M128.62 538.71 C128.79 538.71 128.98 538.77 129.12 538.91 L131.75 541.54 L131.75 541.54 L131.75 541.54 C131.76 541.55 131.78 541.55 131.78 541.56 L131.87 541.66 C132.03 541.8 132.25 541.89 132.45 541.89 C132.61 541.89 132.75 541.84 132.89 541.73 C133.17 541.55 133.28 541.18 133.2 540.85 L133.17 540.48 C133.2 540.08 133.37 539.67 133.68 539.35 C134.04 538.99 134.51 538.81 134.98 538.81 C135.45 538.81 135.92 538.99 136.26 539.35 C136.98 540.06 136.98 541.22 136.26 541.93 C135.95 542.25 135.54 542.42 135.14 542.46 L134.75 542.43 C134.68 542.41 134.62 542.41 134.54 542.41 C134.28 542.41 134.03 542.52 133.89 542.73 C133.67 543.04 133.7 543.46 133.95 543.74 L134.04 543.84 C134.06 543.85 134.06 543.85 134.06 543.85 L134.06 543.85 L136.72 546.5 C136.98 546.78 136.98 547.22 136.72 547.5 L134.15 550.08 L134.15 550.08 L134.15 550.08 C134.14 550.1 134.14 550.1 134.12 550.1 L134.03 550.2 C133.78 550.48 133.73 550.91 133.95 551.21 C133.98 551.24 134 551.28 134.03 551.3 C134.2 551.46 134.39 551.54 134.61 551.54 C134.67 551.54 134.75 551.54 134.83 551.5 L135.2 551.49 C135.62 551.52 136.03 551.7 136.34 552.02 C137.06 552.72 137.06 553.87 136.34 554.6 C135.98 554.95 135.51 555.14 135.06 555.14 C134.59 555.14 134.12 554.95 133.76 554.6 C133.45 554.28 133.28 553.87 133.23 553.46 L133.26 553.08 C133.34 552.79 133.26 552.49 133.06 552.29 C133.03 552.24 133 552.22 132.95 552.2 C132.83 552.1 132.67 552.05 132.51 552.05 C132.31 552.05 132.12 552.14 131.95 552.29 L131.86 552.37 C131.84 552.37 131.84 552.37 131.84 552.39 L131.84 552.39 L129.12 555.11 C128.98 555.23 128.79 555.31 128.62 555.31 C128.43 555.31 128.25 555.23 128.12 555.1 L125.46 552.47 C125.46 552.45 125.45 552.45 125.45 552.45 L125.35 552.35 C125.1 552.05 125.06 551.65 125.27 551.34 C125.44 551.12 125.69 551 125.94 551 C126.02 551 126.09 551.03 126.16 551.04 L126.52 551.06 C126.95 551.03 127.35 550.85 127.67 550.54 C128.39 549.83 128.39 548.66 127.67 547.96 C127.31 547.6 126.84 547.41 126.38 547.41 C125.92 547.41 125.45 547.6 125.09 547.96 C124.77 548.28 124.59 548.67 124.56 549.09 L124.59 549.47 C124.67 549.79 124.56 550.16 124.28 550.35 C124.16 550.43 123.99 550.48 123.84 550.48 C123.64 550.48 123.45 550.41 123.27 550.27 L123.17 550.17 C123.17 550.17 123.17 550.16 123.16 550.16 L123.16 550.16 L120.52 547.5 C120.24 547.22 120.24 546.78 120.52 546.5 L123.24 543.78 L123.24 543.79 C123.24 543.77 123.24 543.77 123.25 543.77 L123.25 543.77 L123.34 543.68 C123.5 543.54 123.71 543.47 123.92 543.47 C124.06 543.47 124.23 543.5 124.37 543.6 C124.38 543.64 124.44 543.66 124.45 543.68 C124.66 543.89 124.74 544.2 124.66 544.47 L124.63 544.85 C124.67 545.27 124.84 545.67 125.16 545.99 C125.52 546.35 125.98 546.53 126.45 546.53 C126.92 546.53 127.38 546.35 127.74 545.99 C128.45 545.29 128.45 544.12 127.74 543.41 C127.42 543.1 127.02 542.91 126.59 542.87 L126.24 542.91 C126.16 542.93 126.09 542.93 126.02 542.93 C125.8 542.93 125.59 542.85 125.44 542.71 C125.41 542.67 125.38 542.65 125.35 542.6 C125.13 542.3 125.17 541.89 125.42 541.6 L125.42 541.6 L125.52 541.49 C125.52 541.49 125.53 541.48 125.55 541.47 L125.55 541.47 L125.55 541.47 L128.12 538.91 C128.25 538.77 128.43 538.71 128.62 538.71 Z M171.22 536.42 C170.61 536.42 169.97 536.66 169.48 537.12 C164.68 539.79 153.01 550.79 140.12 564.97 L140.2 565.04 C140.14 565.25 140.22 565.49 140.39 565.66 L147.65 572.21 C147.78 572.33 147.93 572.37 148.09 572.37 C148.23 572.37 148.37 572.33 148.5 572.23 L148.5 572.24 C148.5 572.23 148.5 572.22 148.51 572.22 C148.53 572.21 148.56 572.18 148.59 572.16 L148.95 571.73 C148.98 571.71 149.01 571.66 149.04 571.64 C161.76 557.29 171.34 544.64 173.14 539.95 C173.68 538.96 173.54 537.72 172.73 536.99 C172.31 536.61 171.76 536.42 171.22 536.42 Z M139.23 570.37 C139.37 570.37 139.5 570.41 139.59 570.49 C140.01 570.86 139.59 572.04 138.62 573.1 L137.18 574.71 C136.43 575.54 135.59 576.05 135.06 576.05 C134.9 576.05 134.78 576.03 134.68 575.93 C134.26 575.55 134.68 574.4 135.64 573.34 L137.09 571.72 C137.84 570.89 138.7 570.37 139.23 570.37 Z M137.73 528.48 C133.4 528.48 129.34 529.54 125.88 531.34 C119.92 533.79 114.13 540.12 110.88 548.61 C107.81 556.64 107.69 564.72 110.02 570.49 C111.34 575.22 114.09 578.62 117.77 579.33 C118.23 579.43 118.71 579.47 119.2 579.47 C120.31 579.47 121.42 579.23 122.52 578.77 L158.61 542.68 C158.92 542.45 159.12 541.98 159.12 541.46 C159.12 541.11 159.03 540.79 158.87 540.54 L158.87 540.54 C158.87 540.54 158.89 540.54 158.89 540.54 C155.45 533.47 147.28 528.48 137.73 528.48 Z M138.95 566.6 C138.53 566.6 138.12 566.78 137.79 567.11 L130.89 574.8 C130.31 575.43 130.37 576.41 131 576.99 L137.56 582.91 C137.86 583.16 138.23 583.3 138.62 583.3 C139.03 583.3 139.45 583.11 139.75 582.79 L146.67 575.1 C147.23 574.47 147.2 573.49 146.56 572.91 L139.98 567 C139.7 566.74 139.33 566.6 138.95 566.6 Z M128.98 577.48 C128.87 577.48 128.76 577.48 128.67 577.5 L128.67 577.5 C127.13 577.58 125.52 579.91 124.98 583.03 C124.92 583.27 124.88 583.53 124.87 583.75 C124.85 583.75 124.84 583.77 124.82 583.78 C124.82 583.81 124.82 583.85 124.82 583.9 C124.82 584.37 124.77 584.81 124.7 585.2 C124.77 585.9 124.71 586.74 124.49 587.64 C124.02 589.36 123.05 590.65 122.14 590.78 C121.8 591.21 121.63 591.67 121.69 592.16 C121.84 593.52 123.88 594.41 126.45 594.41 C126.91 594.41 127.38 594.39 127.85 594.33 C129.22 594.16 130.43 593.79 131.37 593.29 C132.26 593.03 133.75 591.58 135.09 589.6 C136.65 587.29 137.45 585.05 136.98 584.4 C136.9 584.17 136.76 583.97 136.58 583.79 L130.01 577.89 C129.72 577.62 129.34 577.48 128.98 577.48 Z " fill="#0178af" fill-opacity="1.0" stroke="#ffffff" stroke-opacity="1.0" stroke-width="0" symbology:group="0" symbology:type="ShapedSymbol"/>
        <path id="icon-channels" class="icon" style="cursor: pointer;" onclick="showHide('channels');" d="M49.98 319.12 C52.59 319.12 54.69 321.24 54.69 323.83 C54.69 326.43 52.59 328.52 49.98 328.52 C47.39 328.52 45.28 326.43 45.28 323.83 C45.28 321.24 47.39 319.12 49.98 319.12 Z M33.44 358.3 C33.44 358.3 33.44 358.3 33.44 358.3 L33.44 358.3 L33.44 358.3 Z M66.91 358.45 L66.91 358.45 L66.91 358.45 C66.91 358.45 66.91 358.45 66.91 358.45 Z M48.48 341.48 C48.69 341.48 48.89 341.55 49.05 341.71 L52.1 344.74 L52.1 344.74 L52.1 344.74 C52.1 344.77 52.12 344.77 52.12 344.77 L52.23 344.89 C52.42 345.05 52.66 345.14 52.87 345.14 C53.07 345.14 53.25 345.08 53.39 344.98 C53.71 344.74 53.85 344.34 53.75 343.96 L53.71 343.53 C53.76 343.05 53.96 342.59 54.32 342.21 C54.73 341.8 55.28 341.61 55.82 341.61 C56.35 341.61 56.89 341.8 57.3 342.21 C58.12 343.03 58.12 344.37 57.3 345.2 C56.94 345.56 56.46 345.77 55.98 345.81 L55.55 345.77 C55.48 345.75 55.37 345.74 55.3 345.74 C55 345.74 54.71 345.87 54.53 346.11 C54.3 346.48 54.35 346.96 54.62 347.28 L54.73 347.39 C54.75 347.4 54.75 347.4 54.75 347.4 L54.75 347.4 L57.8 350.46 C58.12 350.78 58.12 351.3 57.8 351.61 L54.85 354.58 L54.85 354.58 L54.85 354.58 C54.84 354.58 54.82 354.58 54.82 354.61 L54.71 354.71 C54.42 355.05 54.37 355.53 54.62 355.87 C54.64 355.93 54.69 355.96 54.71 355.99 C54.89 356.17 55.12 356.27 55.37 356.27 C55.48 356.27 55.55 356.25 55.64 356.23 L56.07 356.2 C56.55 356.24 57.01 356.43 57.37 356.8 C58.19 357.61 58.19 358.96 57.37 359.77 C56.96 360.18 56.42 360.4 55.89 360.4 C55.35 360.4 54.82 360.18 54.41 359.77 C54.05 359.43 53.84 358.93 53.8 358.46 L53.82 358.03 C53.91 357.71 53.84 357.36 53.6 357.11 C53.57 357.09 53.51 357.05 53.48 357.02 C53.32 356.92 53.14 356.86 52.96 356.86 C52.73 356.86 52.5 356.96 52.32 357.11 L52.21 357.21 C52.19 357.23 52.19 357.24 52.19 357.24 L52.19 357.24 L49.05 360.37 C48.89 360.53 48.69 360.61 48.48 360.61 C48.26 360.61 48.05 360.53 47.89 360.37 L44.85 357.31 C44.84 357.3 44.84 357.3 44.84 357.3 L44.73 357.18 C44.42 356.86 44.39 356.4 44.62 356.02 C44.8 355.77 45.09 355.65 45.39 355.65 C45.46 355.65 45.55 355.67 45.64 355.68 L46.07 355.71 C46.55 355.68 47.03 355.48 47.39 355.11 C48.19 354.28 48.19 352.96 47.39 352.12 C46.98 351.73 46.44 351.52 45.91 351.52 C45.35 351.52 44.82 351.73 44.41 352.12 C44.03 352.49 43.85 352.96 43.8 353.45 L43.82 353.86 C43.94 354.24 43.82 354.67 43.48 354.89 C43.34 354.99 43.16 355.05 42.98 355.05 C42.75 355.05 42.5 354.96 42.32 354.8 L42.21 354.68 C42.21 354.68 42.19 354.67 42.19 354.67 L42.17 354.67 L39.14 351.61 C38.84 351.3 38.82 350.78 39.14 350.46 L42.28 347.31 L42.28 347.33 C42.28 347.31 42.28 347.31 42.3 347.3 L42.3 347.3 L42.41 347.2 C42.59 347.05 42.82 346.96 43.07 346.96 C43.25 346.96 43.41 346.99 43.57 347.11 C43.6 347.15 43.64 347.18 43.69 347.21 C43.92 347.45 44 347.8 43.92 348.12 L43.89 348.55 C43.92 349.03 44.12 349.5 44.48 349.86 C44.91 350.28 45.44 350.49 45.98 350.49 C46.51 350.49 47.05 350.28 47.48 349.86 C48.28 349.05 48.28 347.71 47.48 346.9 C47.1 346.53 46.64 346.33 46.16 346.3 L45.73 346.31 C45.64 346.33 45.55 346.36 45.46 346.36 C45.23 346.36 44.98 346.25 44.8 346.08 C44.78 346.05 44.75 346 44.71 345.98 C44.46 345.61 44.51 345.14 44.8 344.8 L44.91 344.68 C44.92 344.68 44.92 344.68 44.94 344.67 L44.94 344.67 L44.94 344.67 L47.89 341.71 C48.05 341.55 48.26 341.48 48.48 341.48 Z M26.46 360.27 C29.07 360.27 31.18 362.37 31.18 364.98 C31.18 367.58 29.07 369.68 26.46 369.68 C23.88 369.68 21.78 367.58 21.78 364.98 C21.78 362.37 23.88 360.27 26.46 360.27 Z M73.66 360.27 C76.27 360.27 78.37 362.37 78.37 364.98 C78.37 367.58 76.27 369.68 73.66 369.68 C71.06 369.68 68.96 367.58 68.96 364.98 C68.96 362.37 71.06 360.27 73.66 360.27 Z M50.16 314.24 C44.96 314.24 40.75 318.46 40.75 323.65 C40.75 328.11 43.82 331.83 47.96 332.81 L47.96 332.81 L47.96 336.43 L47.96 336.43 C40.94 337.48 35.53 343.53 35.53 350.86 C35.53 352.84 35.94 354.74 36.66 356.46 L36.66 356.46 L33.44 358.3 L33.44 358.3 C31.72 356.52 29.31 355.4 26.63 355.4 C21.45 355.4 17.22 359.61 17.22 364.8 C17.22 370 21.45 374.21 26.63 374.21 C31.83 374.21 36.03 370 36.03 364.8 C36.03 363.74 35.87 362.71 35.53 361.74 L35.53 361.74 L38.69 359.93 L38.69 359.93 C41.37 363.31 45.51 365.48 50.16 365.48 C54.69 365.48 58.73 363.42 61.41 360.18 L61.41 360.18 L64.88 361.93 L64.88 361.93 C64.59 362.84 64.44 363.8 64.44 364.8 C64.44 370 68.63 374.21 73.84 374.21 C79.02 374.21 83.23 370 83.23 364.8 C83.23 359.61 79.02 355.4 73.84 355.4 C71.09 355.4 68.63 356.58 66.91 358.45 L66.91 358.45 L63.55 356.74 L63.55 356.74 C64.32 354.93 64.77 352.96 64.77 350.86 C64.77 343.43 59.19 337.27 52 336.37 L52 336.37 L52 332.89 L52 332.89 C56.3 332.03 59.55 328.23 59.55 323.65 C59.55 318.46 55.35 314.24 50.16 314.24 Z " fill="#0178af" fill-opacity="1.0" stroke="#ffffff" stroke-opacity="1.0" stroke-width="0" symbology:group="0" symbology:type="ShapedSymbol"/>
        <path id="icon-portals" class="icon" style="cursor: pointer;" onclick="showHide('portals');" d="M140 118.49 C137.39 119.73 135.26 123.6 134.31 128.72 C136.95 126.95 140.14 125.92 143.58 125.92 C152.06 125.92 159.03 132.18 159.95 140.25 C158.73 137.7 155 135.61 150.08 134.62 L150.08 134.62 C152.5 137.5 153.98 141.25 153.98 145.36 C153.98 153.83 147.7 160.81 139.64 161.75 C142.14 160.54 144.2 156.93 145.22 152.14 L145.22 152.14 C142.64 153.78 139.59 154.72 136.31 154.72 C127.84 154.72 120.85 148.43 119.92 140.37 L119.92 140.37 C121.16 142.95 124.95 145.06 129.95 146.03 L129.95 146.03 C127.3 143.09 125.66 139.17 125.66 134.86 C125.66 126.38 131.95 119.39 140 118.49 Z M139.97 108.28 C121.74 108.28 106.98 122.63 106.98 140.34 C106.98 158.01 121.74 172.36 139.97 172.36 C158.2 172.36 172.97 158.01 172.97 140.34 C172.97 122.63 158.2 108.28 139.97 108.28 Z " fill="#0178af" fill-opacity="1.0" stroke="#ffffff" stroke-opacity="1.0" stroke-width="0" symbology:group="0" symbology:type="ShapedSymbol"/>
        <text id="scavecgraph" fill="#0178af" fill-opacity="1.0" font-family="sans-serif" font-size="28" font-weight="bold" symbology:group="0" symbology:type="PlainText" x="264" y="216">Scavecgraph</text>
        <text id="solution" fill="#0178af" fill-opacity="1.0" font-family="sans-serif" font-size="28" font-weight="bold" symbology:group="0" symbology:type="PlainText" x="290" y="500">Solutions</text>
        <text fill="#0178af" fill-opacity="1.0" font-family="sans-serif" font-size="24" font-weight="bold" id="el09d2871f" symbology:group="0" symbology:type="PlainText" x="314" y="132">Admin</text>
        <text fill="#0178af" fill-opacity="1.0" font-family="sans-serif" font-size="24" font-weight="bold" id="ele9029ae9" symbology:group="0" symbology:type="PlainText" x="490" y="215">Repos</text>
        <text fill="#0178af" fill-opacity="1.0" font-family="sans-serif" font-size="24" font-weight="bold" id="eldee9004f" symbology:group="0" symbology:type="PlainText" x="520" y="355">Tasks</text>
        <text fill="#0178af" fill-opacity="1.0" font-family="sans-serif" font-size="24" font-weight="bold" id="el2d700316" symbology:group="0" symbology:type="PlainText" x="494" y="500">Specs</text>
        <text fill="#0178af" fill-opacity="1.0" font-family="sans-serif" font-size="24" font-weight="bold" id="elc09713f7" symbology:group="0" symbology:type="PlainText" x="289" y="590">Resources</text>
        <text fill="#0178af" fill-opacity="1.0" font-family="sans-serif" font-size="24" font-weight="bold" id="elf7d738b2" symbology:group="0" symbology:type="PlainText" x="140" y="500">Studio</text>
        <text fill="#0178af" fill-opacity="1.0" font-family="sans-serif" font-size="24" font-weight="bold" id="el557f4f9d" symbology:group="0" symbology:type="PlainText" x="113" y="355">Channel</text>
        <text fill="#0178af" fill-opacity="1.0" font-family="sans-serif" font-size="24" font-weight="bold" id="el374b8e2f" symbology:group="0" symbology:type="PlainText" x="139" y="215">Portal</text>
        <text id="admin" x="300" y="186" fill="#0178af" style="display:none;font-family:sans-serif;">
            <tspan x="250" class="heading" dy="1.2em" font-weight="bold" font-size="24">Administration</tspan>
            <tspan x="250" dy="1em" fill-opacity="0">.</tspan>
            <tspan x="250" dy="1.2em" font-weight="bold">Manages :</tspan>
            <tspan x="320" dy="1.2em">- Orgs And Persons</tspan>
            <tspan x="320" dy="1.2em">- Users And Roles</tspan>
            <tspan x="320" dy="1.2em">- Repos And Workstations</tspan>
            <tspan x="250" dy="1em" fill-opacity="0">.</tspan>
            <tspan x="250" dy="1.2em" font-weight="bold">Editors :</tspan>
            <tspan x="320" dy="1.2em">- Work Tasking</tspan>
            <tspan x="320" dy="1.2em">- Specifications</tspan>            
            <tspan x="250" dy="1em" fill-opacity="0">.</tspan>
            <tspan x="250" dy="1.2em" font-weight="bold">Building :</tspan>
            <tspan x="320" dy="1.2em">- Repositories</tspan>
            <tspan x="320" dy="1.2em">- Studio Apps</tspan>
            <tspan x="250" dy="1em" fill-opacity="0">.</tspan>
            <tspan x="250" dy="1.2em" font-weight="bold">Monitors :</tspan>
            <tspan x="320" dy="1.2em">- Task Audit History</tspan>
            <tspan x="320" dy="1.2em">- Graphic Audit History</tspan>
            <tspan x="320" dy="1.2em">- Specs Audit History</tspan>
        </text>
        <text id="repos" x="300" y="186" fill="#0178af" style="display:none;font-family:sans-serif;">
            <tspan x="240" dy="1.2em" font-weight="bold" font-size="24">Repositories</tspan>
            <tspan x="240" dy="1em" fill-opacity="0">.</tspan>
            <tspan x="240" dy="1.2em" font-weight="bold">Store :</tspan>
            <tspan x="286" dy="1.2em">- Articles</tspan>
            <tspan x="286" dy="1.2em">- Symbols</tspan>
            <tspan x="286" dy="1.2em">- Compositions</tspan>            
            <tspan x="286" dy="1.2em">- Composition Symbols</tspan>            
            <tspan x="286" dy="1.2em">- Composition Shapes</tspan>
            <tspan x="286" dy="1.2em">- Composition Text</tspan>            
            <tspan x="286" dy="1.2em">- Composition Instance Navigation Links</tspan>
            <tspan x="286" dy="1.2em">- Composition Instance Articles</tspan>
            <tspan x="286" dy="1.2em">- Composition Instance Backgrounds</tspan>
            <tspan x="286" dy="1.2em">- Composition Instance Effects/Anis</tspan>
            <tspan x="240" dy="1em" fill-opacity="0">.</tspan>
            <tspan x="240" dy="1.2em" font-weight="bold">Views :</tspan>
            <tspan x="286" dy="1.2em">- Through Channel</tspan>
            <tspan x="286" dy="1.2em">- Through Portal</tspan>
        </text>
        <text id="tasking" x="300" y="186" fill="#0178af"  style="display:none;font-family:sans-serif;">
            <tspan x="250" dy="1.2em" font-weight="bold" font-size="24">Tasking</tspan>
            <tspan x="250" dy="1em" fill-opacity="0">.</tspan>
            <tspan x="250" dy="1.2em" font-weight="bold">Manage Work :</tspan>
            <tspan x="360" dy="1.2em">- Projects</tspan>
            <tspan x="360" dy="1.2em">- In Trays</tspan>            
            <tspan x="360" dy="1.2em">- Tasks</tspan>
            <tspan x="360" dy="1.2em">- Task Items</tspan>
            <tspan x="290" dy="1em" fill-opacity="0">.</tspan>            
            <tspan x="250" dy="1.2em" font-weight="bold">Work Timeline :</tspan>
            <tspan x="360" dy="1.2em">- Projects</tspan>
            <tspan x="360" dy="1.2em">- Tasks</tspan>
            <tspan x="290" dy="1em" fill-opacity="0">.</tspan>            
            <tspan x="250" dy="1.2em" font-weight="bold">Communicate :</tspan>
            <tspan x="360" dy="1.2em">- Chat Rooms</tspan>            
        </text>
        <text id="specs" x="300" y="186" fill="#0178af"  style="display:none;font-family:sans-serif;">
            <tspan x="250" dy="1.2em" font-weight="bold" font-size="24">Specifications</tspan>
            <tspan x="250" dy="1em" fill-opacity="0">.</tspan>
            <tspan x="250" dy="1.2em" font-weight="bold">Diagram :</tspan>
            <tspan x="320" dy="1.2em">- Navigation Links</tspan>
            <tspan x="250" dy="1em" fill-opacity="0">.</tspan>
            <tspan x="250" dy="1.2em" font-weight="bold">Drawing :</tspan>
            <tspan x="320" dy="1.2em">- Sketch</tspan>
            <tspan x="320" dy="1.2em">- Labels</tspan>
            <tspan x="320" dy="1.2em">- Text</tspan>
            <tspan x="290" dy="1em" fill-opacity="0">.</tspan>
            <tspan x="250" dy="1.2em" font-weight="bold">Describe :</tspan>
            <tspan x="320" dy="1.2em">- Imagery</tspan>
            <tspan x="320" dy="1.2em">- Animations</tspan>
            <tspan x="320" dy="1.2em">- Effects</tspan>
            <tspan x="250" dy="1em" fill-opacity="0">.</tspan>
            <tspan x="250" dy="1.2em" font-weight="bold">Generate :</tspan>
            <tspan x="320" dy="1.2em">- Design Strategy</tspan>            
        </text>
        <text id="resources" x="300" y="186" fill="#0178af"  style="display:none;font-family:sans-serif;">
            <tspan x="250" dy="1.2em" font-weight="bold" font-size="24">Resources</tspan>
            <tspan x="250" dy="1em" fill-opacity="0">.</tspan>
            <tspan x="250" dy="1.2em" font-weight="bold">Text Fonts :</tspan>
            <tspan x="330" dy="1.2em">- Google Fonts</tspan>
            <tspan x="250" dy="1em" fill-opacity="0">.</tspan>
            <tspan x="250" dy="1.2em" font-weight="bold">Symbols :</tspan>
            <tspan x="330" dy="1.2em">- Symbol Catalogs</tspan>
            <tspan x="290" dy="1em" fill-opacity="0">.</tspan>
            <tspan x="250" dy="1.2em" font-weight="bold">Templates :</tspan>
            <tspan x="330" dy="1.2em">- Symbol</tspan>            
            <tspan x="330" dy="1.2em">- Composition</tspan>
            <tspan x="330" dy="1.2em">- Animation</tspan>
        </text>
        <text id="studios" x="300" y="186" fill="#0178af"  style="display:none;font-family:sans-serif;">
            <tspan x="240" dy="1.2em" font-weight="bold" font-size="24">Studio</tspan>
            <tspan x="280" dy="1em" fill-opacity="0">.</tspan>
            <tspan x="240" dy="1.2em" font-weight="bold">SVG Utils :</tspan>
            <tspan x="320" dy="1.2em">- Import SVG</tspan>
            <tspan x="320" dy="1.2em">- Image to SVG Symbol</tspan>
            <tspan x="320" dy="1.2em">- Image to SVG Composition</tspan>
            <tspan x="240" dy="1em" fill-opacity="0">.</tspan>
            <tspan x="240" dy="1.2em" font-weight="bold">Designers :</tspan>
            <tspan x="320" dy="1.2em">- Symbols</tspan>
            <tspan x="320" dy="1.2em">- Compositions</tspan>
            <tspan x="320" dy="1.2em">- Composition Instance Link + Articles</tspan>
            <tspan x="320" dy="1.2em">- Composition Instance Effect + Ani</tspan>
            <tspan x="240" dy="1em" fill-opacity="0">.</tspan>
            <tspan x="240" dy="1.2em" font-weight="bold">Viewers :</tspan>
            <tspan x="320" dy="1.2em">- In Tray</tspan>            
            <tspan x="320" dy="1.2em">- Design Strategy</tspan>
            <tspan x="320" dy="1.2em">- Work Audit History</tspan>            
            <tspan x="320" dy="1.2em">- Repository Assets</tspan>
            <tspan x="320" dy="1.2em">- Network Telemetry</tspan>            
        </text>
        <text id="channels" x="300" y="186" fill="#0178af"  style="display:none;font-family:sans-serif;">
            <tspan x="250" dy="1.2em" font-weight="bold" font-size="24">Channel</tspan>
            <tspan x="250" dy="1em" fill-opacity="0">.</tspan>
            <tspan x="250" dy="1.2em" font-weight="bold">Content :</tspan>
            <tspan x="320" dy="1.2em">- Repository SVG Imagery</tspan>            
            <tspan x="250" dy="1em" fill-opacity="0">.</tspan>
            <tspan x="250" dy="1.2em" font-weight="bold">Navigate :</tspan>
            <tspan x="320" dy="1.2em">- Index And History Bar Links</tspan>
            <tspan x="320" dy="1.2em">- Imagery Content Links</tspan>
            <tspan x="320" dy="1.2em">- Search</tspan>
            <tspan x="250" dy="1em" fill-opacity="0">.</tspan>
            <tspan x="250" dy="1.2em" font-weight="bold">Caching :</tspan>
            <tspan x="320" dy="1.2em">- Thumnail And Imaagery</tspan>
            <tspan x="250" dy="1em" fill-opacity="0">.</tspan>
            <tspan x="250" dy="1.2em" font-weight="bold">Scaling :</tspan>
            <tspan x="320" dy="1.2em">- Fit Viewport</tspan>
            <tspan x="320" dy="1.2em">- Pan Zooming</tspan>
            <tspan x="250" dy="1em" fill-opacity="0">.</tspan>
            <tspan x="250" dy="1.2em" font-weight="bold">Branding :</tspan>
            <tspan x="320" dy="1.2em">- Colors And Theme</tspan>
        </text>
        <text id="portals" x="300" y="186" fill="#0178af"  style="display:none;font-family:sans-serif;">
            <tspan x="240" dy="1.2em" font-weight="bold" font-size="24">Portal</tspan>
            <tspan x="240" dy="1em" fill-opacity="0">.</tspan>
            <tspan x="240" dy="1.2em" font-weight="bold">Contents :</tspan>
            <tspan x="310" dy="1.2em">- Hierarchical Tree Text</tspan>
            <tspan x="310" dy="1.2em">- Hierarchical Tree Imagery</tspan>
            <tspan x="310" dy="1.2em">- Embeded Channel</tspan>
            <tspan x="230" dy="1em" fill-opacity="0">.</tspan>
            <tspan x="230" dy="1.2em" font-weight="bold">Navigate :</tspan>
            <tspan x="310" dy="1.2em">- Hierarchical Tree Text</tspan>            
            <tspan x="310" dy="1.2em">- Direct Channel Imagery</tspan>
            <tspan x="310" dy="1.2em">- Elaborate Channel Imagery</tspan>
            <tspan x="240" dy="1em" fill-opacity="0">.</tspan>
            <tspan x="240" dy="1.2em" font-weight="bold">Orienting :</tspan>
            <tspan x="310" dy="1.2em">- Portrait To Vertical Layout </tspan>
            <tspan x="310" dy="1.2em">- Lanscape To Horizontal layout</tspan>
            <tspan x="240" dy="1em" fill-opacity="0">.</tspan>
            <tspan x="240" dy="1.2em" font-weight="bold">Branding :</tspan>
            <tspan x="310" dy="1.2em">- Colors And Theme</tspan>            
        </text>	
    </g>
</svg>
